<?xml version="1.0" encoding="utf-8"?>
<!-- Generator: Adobe Illustrator 16.0.0, SVG Export Plug-In . SVG Version: 6.00 Build 0)  -->
<!DOCTYPE svg PUBLIC "-//W3C//DTD SVG 1.0//EN" "http://www.w3.org/TR/2001/REC-SVG-20010904/DTD/svg10.dtd">
<svg version="1.0" id="Layer_1" xmlns="http://www.w3.org/2000/svg" xmlns:xlink="http://www.w3.org/1999/xlink" x="0px" y="0px"
	 width="349.994px" height="82.091px" viewBox="713.108 -2969.848 349.994 82.091"
	 enable-background="new 713.108 -2969.848 349.994 82.091" xml:space="preserve">
<g>
	<g>
		<g>
			<polygon fill="#077E40" points="785.709,-2912.968 778.756,-2916.427 778.532,-2915.914 785.416,-2912.303 			"/>
			<path fill="#077E40" d="M771.133-2969.844h-33.996l-24.028,24.032v34.01l24.028,24.04h33.996l24.029-24.04v-34.01
				L771.133-2969.844z M792.469-2913.054l-22.817,22.777h-31.423l-22.453-22.464l0.021-31.894l22.479-22.622h31.854l22.283,22.269
				L792.469-2913.054z"/>
			<g>
				<g>
					<g>
						<path fill="#077E40" d="M751.252-2949.15c0.924-0.12,1.484-0.237,2.594-0.237v-0.586c-0.01-0.708-0.334-1.062-1.189-1.024
							c0,0-0.576,0.161-0.763-0.119c0,0,0.021,0.198-0.197,0.476c-0.149,0.194-0.479,0.39-0.479,0.39s0.764-0.157,0.955-0.157
							c0.357,0,1.095-0.275,1.067,0.474h-0.013c-0.312,0.042-0.939,0.042-2.071,0.235L751.252-2949.15z"/>
						<g>
							<path fill="#077E40" d="M754.991-2951.116c-0.058,0-0.106,0-0.153,0l0.018,2.556h-0.012
								c-0.039,0.863-0.851,0.471-0.893,0.434c0.406,0.549,1.395,0.47,1.441-0.474l0.123-2.867
								C755.517-2951.468,755.345-2951.116,754.991-2951.116z"/>
							<path fill="#077E40" d="M755.188-2952.374c0.196,0,0.375-0.151,0.384-0.35c0.021-0.196-0.129-0.355-0.332-0.392
								c-0.197,0-0.374,0.154-0.384,0.352C754.838-2952.568,754.991-2952.411,755.188-2952.374z"/>
						</g>
					</g>
					<g>
						<path fill="#077E40" d="M762.094-2949.699c-0.051,0-0.094-0.043-0.144-0.043l-0.891,2.398h-0.013
							c-0.33,0.786-0.959,0.115-0.98,0.081c0.18,0.667,1.12,0.939,1.514,0.077l1.127-2.634
							C762.707-2949.82,762.434-2949.582,762.094-2949.699z"/>
						<path fill="#077E40" d="M758.78-2947.735c0.208,0,0.375-0.119,0.384-0.355c0.012-0.197-0.146-0.354-0.34-0.354
							c-0.197-0.04-0.374,0.117-0.386,0.316C758.429-2947.894,758.588-2947.735,758.78-2947.735z"/>
						<path fill="#077E40" d="M761.629-2950.837c0,0-0.252,0.43-0.963,0.229c0,0,0.176,0.238,0.09,0.477
							c-0.03,0.078-0.197,0.549-0.365,1.058c-0.831-0.274-2.236-0.549-2.95-0.669c0,0,0.303-0.312,0.448-0.628
							c0.267-0.548,0.148-1.175,0.148-1.175c-0.021,0.313-0.132,1.453-1.964,2.24c0,0,1.177-0.083,4.72,0.979L761.629-2950.837z"/>
					</g>
					<g>
						<path fill="#077E40" d="M770.562-2944.01l-1.072-1.135c-0.314-0.274-0.449-0.117-0.804,0.235l-0.603,0.708l0.926,0.865
							l-0.53,0.508h-0.021c-0.599,0.549-0.91-0.274-0.91-0.316c-0.102,0.63,0.637,1.258,1.326,0.673L770.562-2944.01z
							 M768.861-2944.278l0.186-0.158c0.144-0.159,0.254-0.159,0.406-0.042l0.327,0.353l-0.383,0.393L768.861-2944.278z"/>
						<path fill="#077E40" d="M768.177-2948.051c0.193,0,0.361-0.158,0.361-0.353c0.012-0.198-0.16-0.355-0.354-0.394
							c-0.206,0-0.364,0.158-0.376,0.394C767.81-2948.208,767.98-2948.051,768.177-2948.051z"/>
						<path fill="#077E40" d="M769.285-2947.261c0.205,0,0.372-0.163,0.372-0.354c0-0.199-0.159-0.357-0.362-0.357
							c-0.197,0-0.365,0.158-0.365,0.357C768.929-2947.425,769.088-2947.261,769.285-2947.261z"/>
						<path fill="#077E40" d="M767.888-2947.698c-0.352-0.235-0.536-0.196-0.822,0.234l-0.482,0.748l0.994,0.743l-0.273,0.358
							c-0.393-0.277-1.611-1.101-2.221-1.453l1.5-2.711c0,0-0.447,0.276-1.09,0.156c0,0,0.198,0.081,0.084,0.275
							c-0.031,0.042-1.385,2.71-1.398,2.752c-0.334,0.584-0.801,0.467-1.031,0.352c-0.457-0.237-0.512-0.67-0.45-0.942
							c0.06-0.278,0.169-0.747,0.933-1.102c0,0,0.115,0.197,0.354,0.041c0.222-0.158,0.295-0.552,0.295-0.552
							c-0.336,0.197-1.491,0.748-1.748,1.454c-0.266,0.708,0.114,1.333,0.558,1.495c0.261,0.115,1.062,0.388,1.541-0.435
							l0.168-0.274c0.779,0.431,1.521,0.862,2.608,1.769l1.634-2.046L767.888-2947.698z M767.362-2946.835l0.136-0.232
							c0.118-0.161,0.178-0.161,0.344-0.04l0.383,0.272l-0.312,0.431L767.362-2946.835z"/>
					</g>
					<g>
						<path fill="#077E40" d="M749.674-2951.902c0.195,0,0.344-0.196,0.332-0.39c-0.021-0.196-0.193-0.355-0.391-0.316
							c-0.208,0-0.354,0.197-0.334,0.394C749.289-2952.018,749.467-2951.902,749.674-2951.902z"/>
						<path fill="#077E40" d="M746.099-2946.364c0.195,0,0.344-0.194,0.335-0.39c-0.019-0.196-0.198-0.353-0.394-0.353
							c-0.193,0.04-0.356,0.193-0.332,0.391C745.73-2946.481,745.893-2946.364,746.099-2946.364z"/>
						<path fill="#077E40" d="M747.201-2946.913c0.193,0,0.342-0.193,0.332-0.388c-0.018-0.201-0.195-0.356-0.392-0.315
							c-0.209,0-0.354,0.192-0.334,0.388C746.818-2947.03,746.996-2946.875,747.201-2946.913z"/>
						<path fill="#077E40" d="M749.879-2949.464c-0.578,0.117-1.148,0.272-1.148,0.272l-1.297-1.372c0,0-0.196-0.272-0.559-0.235
							c-0.236,0.038-0.658,0.274-0.855,0.428c-0.213,0.157-0.37,0.437-0.166,0.671l1.001,1.138
							c-0.835,0.274-1.562,0.667-2.218,0.982c0,0,0.07-0.433,0-0.749c-0.118-0.627-0.59-1.021-0.59-1.021
							c0.177,0.237,0.758,1.22-0.222,2.944c0,0,1.03-0.859,4.05-1.961l-1.47-1.569c0.08-0.121,0.325-0.28,0.538-0.28l1.531,1.652
							c0.542-0.117,1.394-0.314,2.042-0.432l-0.364-2.318c0,0-0.087,0.394-0.333,0.551c-0.278,0.079-0.519,0.198-0.519,0.198
							s0.32-0.16,0.44,0.393L749.879-2949.464z"/>
					</g>
					<g>
						<path fill="#077E40" d="M743.136-2946.01h-0.471c-0.414,0-0.494-0.274-0.494-0.274c-0.041,0.274-0.381,0.434-0.727,0.355
							c-0.286-0.044-0.501-0.355-0.52-0.749c-0.008-0.468,0.412-0.787,0.738-0.624c-0.041,0.156,0.057,0.311,0.153,0.311
							c0.129,0.041,0.313,0,0.304-0.195c-0.018-0.198-0.195-0.239-0.203-0.239c-0.67-0.154-1.277,0.318-1.308,0.867
							c-0.021,0.511,0.325,1.022,0.796,1.022c-0.257,0.197-0.5,0.392-0.709,0.59l-2.138-2.438c0,0,0.079,0.433-0.226,0.902
							c0,0,0.117-0.113,0.241,0.038c0.101,0.12,1.134,1.218,1.701,1.849c-0.206,0.193-0.362,0.354-0.479,0.469
							c-0.11-0.038-0.227-0.077-0.354-0.077c-0.511-0.039-0.962,0.354-1.001,0.865c-0.018,0.192,0.039,0.352,0.126,0.508
							c-0.116,0.156-0.251,0.357-0.372,0.471l-2.562-1.964c0,0,0.158,0.434-0.051,0.942c0,0,0.09-0.159,0.25-0.039
							c0.166,0.159,2.475,1.848,2.475,1.848l0.117-0.159c0.027,0,0.057-0.042,0.066-0.042c0.069-0.074,0.293-0.391,0.512-0.661
							c0.088,0.036,0.188,0.074,0.293,0.074c0.514,0.042,0.953-0.354,0.994-0.864c0.018-0.158-0.02-0.316-0.096-0.472
							C741.23-2944.75,742.485-2945.615,743.136-2946.01z M739.347-2942.946c-0.188-0.039-0.315-0.198-0.305-0.353
							c0.008-0.196,0.166-0.314,0.354-0.314c0.176,0,0.312,0.158,0.292,0.354C739.682-2943.06,739.521-2942.946,739.347-2942.946z"
							/>
						<g>
							<path fill="#077E40" d="M736.068-2944.674c0,0,0.902-0.587,1.13-1.374h0.155c0,0,0.05,0.392-0.372,0.864
								C736.566-2944.712,736.068-2944.674,736.068-2944.674z"/>
							<path fill="#077E40" d="M736.487-2944.321c0,0,0.906-0.625,1.134-1.413h0.151c0,0,0.042,0.433-0.369,0.862
								C736.989-2944.4,736.487-2944.321,736.487-2944.321z"/>
						</g>
					</g>
				</g>
				<g>
					<path fill="#077E40" d="M750.42-2962.976c-0.039-0.312,0.229-0.312,0.229-0.312c-0.828-0.12-1.229-0.669-1.229-0.669
						l0.767,5.576c0.03,0.197-0.097,0.354-0.276,0.395c-0.197,0.036-0.365-0.081-0.391-0.277l-0.928-5.537
						c0,0-0.231,0.628-0.969,1.021c0,0,0.245-0.115,0.307,0.197c0.017,0.116,0.283,1.491,0.51,2.708
						c-0.441,0.082-0.887,0.196-1.296,0.316l-0.375-1.768c0,0-0.196,0.667-0.903,1.098c0,0,0.235-0.116,0.305,0.201
						c0.03,0.117,0.106,0.432,0.168,0.666c-0.346,0.116-0.709,0.196-1.021,0.275l-0.484-1.688c0,0-0.152,0.625-0.841,1.097
						c0,0,0.226-0.115,0.313,0.201c0.039,0.115,0.248,0.667,0.248,0.667c-0.317,0.074-0.641,0.155-0.918,0.272l-0.561-1.61
						c0,0-0.137,0.63-0.803,1.141c0,0,0.236-0.12,0.332,0.16c0.021,0.075,1.031,2.785,1.031,2.785
						c0.113,0.316-0.016,0.748-0.598,0.826c-0.08,0-0.156-0.04-0.236-0.078c0.156,0.114,0.326,0.157,0.502,0.157
						c0.6,0,1.287-0.47,1.06-1.26l-0.438-1.293c1.393-0.551,3.031-0.986,4.668-1.296c0.103,0.51,0.189,0.859,0.189,0.859
						c0.077,0.477,0.471,0.828,0.93,0.907c0.258,0,0.346,0.355,0.346,0.355c0-0.193,0.109-0.396,0.177-0.473
						c0.451-0.157,0.728-0.591,0.696-1.06l-0.01,0.039C750.92-2958.381,750.447-2962.779,750.42-2962.976z"/>
					<path fill="#077E40" d="M761.418-2963.092c0.273,0,0.485-0.236,0.485-0.51c0-0.279-0.212-0.472-0.485-0.472
						c-0.271,0-0.498,0.193-0.498,0.472C760.92-2963.328,761.147-2963.092,761.418-2963.092z"/>
					<path fill="#077E40" d="M777.934-2948.562l-0.483-0.63l3.485-3.059c0,0-0.204,0.625,0.121,1.413c0,0-0.128-0.235-0.366-0.04
						C780.467-2950.682,777.934-2948.562,777.934-2948.562z"/>
					<path fill="#077E40" d="M731.571-2949.427l-0.512,0.63l-3.542-3.062c0,0,0.654,0.117,1.382-0.316c0,0-0.204,0.157,0.022,0.392
						L731.571-2949.427z"/>
					<path fill="#077E40" d="M743.754-2961.837c0.265,0,0.48-0.235,0.48-0.51c0-0.273-0.216-0.472-0.48-0.472
						c-0.266,0-0.479,0.198-0.479,0.472C743.274-2962.072,743.487-2961.837,743.754-2961.837z"/>
					<path fill="#077E40" d="M744.154-2960.618c0.268,0,0.482-0.194,0.482-0.473c0-0.273-0.215-0.509-0.482-0.509
						c-0.266,0-0.48,0.235-0.48,0.509C743.674-2960.812,743.888-2960.618,744.154-2960.618z"/>
					<path fill="#077E40" d="M747.354-2956.339c0.269,0,0.471-0.196,0.471-0.47c0-0.271-0.204-0.511-0.471-0.511
						c-0.263,0-0.479,0.241-0.479,0.511C746.875-2956.534,747.092-2956.339,747.354-2956.339z"/>
					<path fill="#077E40" d="M724.131-2934.19c0.229-1.412,0.365-2.04,0.844-3.648l-0.825-0.275
						c-0.696-0.157-1.845,0.08-2.101,1.175c0,0-0.129,1.023-0.51,1.064c0,0,0.256,0.077,0.553,0.506
						c0.195,0.277,0.32,0.867,0.32,0.867s0.227-1.141,0.293-1.415c0.162-0.508,0.162-1.728,1.211-1.293l0,0
						c-0.119,0.469-0.385,1.175-0.66,2.868L724.131-2934.19z"/>
					<path fill="#077E40" d="M740.67-2959.558c0,0-0.068,0.551-0.508,0.786c-1.06,0.511-1.166,1.297-0.875,1.924l0.502,0.982
						l1.312-0.667l0.434,0.944l0.011,0.038c0.451,1.021-0.777,1.059-0.847,1.021c0.824,0.435,1.994-0.233,1.484-1.415
						L740.67-2959.558z M740.063-2957.006c-0.138-0.235-0.188-0.43-0.118-0.627c0.066-0.158,0.459-0.394,0.459-0.394l0.325,0.707
						L740.063-2957.006z"/>
					<path fill="#077E40" d="M732.111-2954.018c0,0,0.107,0.544-0.247,0.902c-0.853,0.824-0.714,1.607-0.241,2.118l0.774,0.784
						l1.039-1.098l0.707,0.787h0.01c0.755,0.863-0.401,1.294-0.489,1.294c0.924,0.12,1.822-0.862,0.979-1.842L732.111-2954.018z
						 M732.307-2951.387c-0.206-0.199-0.313-0.354-0.306-0.549c0.012-0.197,0.324-0.552,0.324-0.552l0.522,0.552L732.307-2951.387z"
						/>
					<path fill="#077E40" d="M736.912-2958.342c-0.156-0.273,0.086-0.355,0.086-0.355c-0.804,0.199-1.381-0.113-1.381-0.113
						l1.942,3.257c-0.511,0.315-1.298,0.9-2.081,1.493c0,0-0.126-0.706-0.314-0.982c-0.312-0.47-0.854-0.626-0.854-0.626
						c0.315,0.315,1.159,1.334,0.345,3.339c0,0,0.775-0.867,4.023-2.908C738.677-2955.237,737.069-2958.067,736.912-2958.342z"/>
					<path fill="#077E40" d="M764.685-2962.702c0,0-0.395,0.396-0.865,0.236c-1.148-0.273-1.736,0.235-1.917,0.941l-0.233,1.061
						l1.439,0.353l-0.568,2.004c0,0-0.098,0.748-0.488,0.671c-0.383-0.12-0.168-0.787-0.168-0.787l0.272-1.215
						c0,0-1.567-0.354-1.794-0.396c0,0,0.236-0.978-0.296-1.648c-0.485-0.667-0.959-0.667-0.959-0.667l0.243-1.808
						c0,0-0.354,0.865-1.354,0.825h-0.01c-0.01,0-0.01,0,0,0c0.146,0.04,0.441,0.114,0.383,0.55l-0.041,0.352
						c0,0-0.619-0.076-1.248,0.475c-0.529,0.506-0.557,1.411-0.557,1.411s-0.452-0.041-0.589-0.041l0.011-0.667
						c-0.05-0.549-0.553-1.18-1.533-1.214c0,0-1.089,0.117-1.353-0.279c0,0,0,0.356-0.235,0.593
						c-0.256,0.273-0.656,0.426-0.656,0.426s1.096-0.075,1.371-0.035c0.922,0.079,1.68-0.196,1.666,1.096
						c0,0.042-3.019,0.121-3.019,0.121l0.044,0.867c0,0,2.799-0.201,4.253-0.042v1.1c0,0,0.038,1.023,0.929,1.099
						c1.035,0.079,1.148-0.902,1.148-0.902l0.148-1.063c0.539,0.12,1.678,0.316,2.535,0.513l-0.121,0.746
						c0,0-0.205,0.904,0.603,1.254c0.086,0.121,0.077,0.278,0.045,0.354c0,0,0.11-0.193,0.276-0.272
						c0.621,0.079,0.869-0.277,1.029-0.826C763.082-2957.516,764.594-2962.426,764.685-2962.702z M757.859-2958.263
						c0,0-0.037,0.277-0.361,0.277c-0.234,0-0.355-0.355-0.355-0.355l0.042-1.095l0.805,0.075L757.859-2958.263z M758.086-2960.228
						l-0.814-0.076c0.045-0.588,0.361-1.139,0.962-1.139L758.086-2960.228z M759.668-2959.951l-0.824-0.16l0.133-1.253
						c0.309,0.115,0.562,0.353,0.68,0.59C759.784-2960.464,759.668-2959.951,759.668-2959.951z M762.588-2961.168
						c0.072-0.275,0.139-0.432,0.316-0.549c0.268-0.119,0.661,0.041,0.661,0.041l-0.214,0.745L762.588-2961.168z"/>
					<path fill="#077E40" d="M720.677-2932.497c0.566,0.273,0.783,0.548,0.783,0.548c0.631-0.548,1.6-0.195,1.619,0.552
						c0.018,0.94-0.727,1.021-0.959,1.021c-0.268,0-0.679,0.037-1.582-0.904c-0.992-0.98-1.443-0.667-1.629-0.471c0,0,0,0,0.01,0
						c-0.062,0.082-0.097,0.159-0.097,0.276c0.009,0.237,0.202,0.43,0.45,0.43c0.234-0.04,0.432-0.235,0.423-0.47
						c0-0.078-0.03-0.117-0.062-0.195c0.218,0.039,0.316,0.117,0.728,0.591c0.875,0.938,1.483,1.137,1.927,1.097
						c0.616,0,1.461-0.588,1.441-1.57c-0.032-1.181-1.178-1.57-1.637-1.533C721.147-2933.127,720.677-2932.497,720.677-2932.497z"/>
					<path fill="#077E40" d="M778.53-2953.706c0,0,0.218,0.155-0.009,0.394c-0.326,0.314-1.903,1.964-1.903,1.964
						c-0.133-0.12-0.405-0.394-0.745-0.67c0.041-0.115,0.067-0.273,0.067-0.393c0.004-0.275-0.205-0.746-0.205-0.746
						c-0.133-0.195,0.017-0.47,0.017-0.47s-0.205,0.198-0.511,0.076c-0.166-0.076-0.341-0.117-0.541-0.155
						c-0.235,0-0.446,0.08-0.627,0.193c-0.226-0.155-1.022-0.744-1.022-0.744l2.271-3.179c0,0-0.609,0.274-1.395,0
						c0,0,0.236,0.116,0.07,0.356c-0.14,0.193-2.367,3.528-2.367,3.528c-0.1,0.159-0.312,0.239-0.475,0.122
						c-0.15-0.122-0.199-0.319-0.095-0.473l1.146-1.847c0.264-0.354,0.313-1.139-0.479-1.612c-0.644-0.394-3.513-1.845-5.117-2.433
						l4.226,0.902c0.528,0.153,0.629,0.353,0.655,0.434c0,0,0.208-0.708,1.375-0.629l-6.854-1.491l-0.42,1.216
						c1.267,0.43,3.556,1.491,4.92,2.2c0.606,0.353,1.336,0.59,0.666,1.609c0,0-2.729-1.729-5.508-2.79c0,0-0.586-0.156-0.613-0.469
						c0,0-0.133,0.784-1.26,0.663c0,0,3.347,0.907,6.97,3.266l-0.334,0.547c-0.261,0.434-0.206,0.944,0.091,1.336
						c0.172,0.16,0.038,0.473,0.038,0.473c0.114-0.161,0.319-0.199,0.419-0.199c0.443,0.199,0.893,0.078,1.189-0.314l0,0
						l0.451-0.629c0,0,0.178,0.155,0.442,0.393c0.099,0.079,0.265,0.196,0.472,0.354c-0.062,0.156-0.1,0.313-0.1,0.473
						c0,0.706,0.562,1.254,1.246,1.254c0.236,0,0.445-0.038,0.63-0.154c0.254,0.231,0.438,0.39,0.452,0.39l0.75,0.787l3.382-3.257
						C779.897-2953.429,779.258-2953.275,778.53-2953.706z M774.683-2951.902c-0.286,0-0.512-0.232-0.512-0.546
						c0-0.277,0.24-0.515,0.521-0.515c0.289,0,0.519,0.238,0.519,0.551C775.203-2952.134,774.981-2951.902,774.683-2951.902z"/>
					<g>
						<path fill="#077E40" d="M783.42-2931.753c0.264,0,0.474-0.232,0.474-0.51c0-0.272-0.21-0.471-0.474-0.471
							c-0.265,0-0.478,0.198-0.478,0.471C782.942-2931.985,783.155-2931.753,783.42-2931.753z"/>
						<path fill="#077E40" d="M787.022-2933.52c-0.276-0.197-0.616-0.626-0.616-0.626s0.186,1.062,0.206,1.332
							c0.038,0.591,0.431,1.694-0.696,1.694v-0.042c-0.17-2.003-0.705-4.635-0.705-4.635c-0.017-0.038,3.638-0.943,3.638-0.943
							s-0.628-0.236-1.05-0.941c0,0,0.023,0.271-0.262,0.353l-3.357,0.861c0.06,0.239,0.125,0.476,0.195,0.79l0,0
							c0.276,1.177,0.58,2.903,0.754,5.496l0.862-0.039c0.72-0.078,1.693-0.627,1.565-1.764c0,0-0.244-0.79,0.142-1.26
							C787.696-2933.245,787.442-2933.205,787.022-2933.52z"/>
						<path fill="#077E40" d="M782.273-2949.347c0.261,0,0.482-0.194,0.488-0.472c0.009-0.272-0.193-0.511-0.461-0.511
							c-0.26,0-0.479,0.199-0.491,0.471C781.804-2949.582,782.006-2949.347,782.273-2949.347z"/>
						<path fill="#077E40" d="M783.414-2947.735c0.262,0,0.479-0.198,0.487-0.474c0.009-0.275-0.194-0.509-0.459-0.509
							c-0.269,0-0.491,0.197-0.491,0.471C782.942-2947.973,783.144-2947.735,783.414-2947.735z"/>
						<path fill="#077E40" d="M786.108-2938.901c-0.28-0.746-1.028-1.647-2.138-1.136c-0.116-0.319-0.873-1.967-1.027-2.357
							c0.458,0.037,1.176,0.666,1.176,0.666s0.51-0.472,0.399-1.177c0,0,0.169-0.239,0.132-0.431
							c-0.092-0.511,0.163-0.631,0.163-0.631s-0.295,0.121-0.62-0.272c-0.115-0.12-0.38-0.16-0.38-0.16
							c-0.729-0.666-1.394-0.312-1.394-0.312c0.135,0.511-0.078,1.175-0.078,1.175c-0.846-1.451-1.354-2.275-1.354-2.275l0.924-0.63
							l1.529-0.982c0,0-0.658,0-1.29-0.549c0,0,0.122,0.239-0.14,0.395c-0.047,0.041-0.135,0.076-0.25,0.154
							c-0.746-0.94-1.598-1.373-2.987-0.233c0.913,1.177,2.231,3.38,2.997,4.793l0.447,0.193l-0.107,0.471
							c1.111,2.241,1.857,4.674,1.857,4.674l2.798-0.822C786.767-2938.347,786.285-2938.427,786.108-2938.901z M783.057-2944.085
							c0,0,0.461,0.041,0.728,0.59c0.223,0.511,0.049,0.901,0.049,0.901s-0.236-0.233-0.867-0.431
							C782.969-2943.024,783.106-2943.378,783.057-2944.085z M779.936-2947.344c0.5-0.314,0.873-0.041,1.136,0.394l-0.564,0.433
							L779.936-2947.344z M784.483-2938.467l-0.269-0.787c0.283-0.158,0.488-0.195,0.776-0.034c0.294,0.151,0.401,0.545,0.401,0.545
							L784.483-2938.467z"/>
					</g>
					<path fill="#077E40" d="M730.435-2948.09l-3.535-3.026c0,0,0.214,0.633-0.098,1.417c0,0,0.127-0.235,0.361-0.043l2.131,1.731
						l-0.668,0.865h0.018c-0.098,0-0.193-0.04-0.292-0.04c-0.345,0-0.647,0.155-0.872,0.351c-0.148,0.081-0.387,0-0.387,0
						s0.168,0.198,0.119,0.392c-0.069,0.159-0.109,0.316-0.109,0.514c0,0.273,0.1,0.551,0.268,0.745
						c-0.197,0.353-0.916,1.534-0.925,1.492c-0.028-0.317,0.042-1.058,0.042-1.058c-0.436-0.238-0.994-0.121-1.443,0.274
						c-0.199-0.041-0.402,0.116-0.562,0.353c-0.174,0.115-0.401,0.04-0.401,0.04s0.195,0.199,0.176,0.393
						c-0.064,0.237-0.058,0.433,0.031,0.591c-0.07,0.589,0.125,1.138,0.578,1.374c0,0,0.439-0.393,0.903-0.586
						c0,0-0.541,1.179-0.788,1.92l-3.542-1.334c0,0,0.411,0.51,0.373,1.334c0,0,0.038-0.233,0.325-0.154
						c0.285,0.114,3.375,1.178,3.375,1.178s0.857-2.162,1.168-2.87l-0.157-0.508l0.541-0.157c0.342-0.667,0.667-1.257,0.95-1.73
						l0.051-0.115c0.088,0.038,0.178,0.038,0.268,0.038c0.674,0,1.236-0.549,1.248-1.217c0-0.274-0.088-0.514-0.229-0.708
						L730.435-2948.09z M725.486-2942.946c-0.275,0.118-0.449,0.353-0.449,0.353c-0.17-0.391-0.103-0.743,0.026-0.979
						c0.125-0.236,0.461-0.552,0.767-0.59c0,0-0.041,0.315-0.021,0.59c0.021,0.194,0.057,0.47,0.057,0.47
						S725.645-2943.024,725.486-2942.946z M728.334-2945.419c-0.275,0-0.504-0.237-0.504-0.51c0-0.274,0.236-0.514,0.516-0.514
						c0.281,0,0.509,0.24,0.509,0.514C728.842-2945.656,728.616-2945.419,728.334-2945.419z"/>
				</g>
			</g>
			<g>
				<path fill="#077E40" d="M782.267-2907.352l-2.785-2.081l0.229-0.276l-0.488-0.352l-0.207,0.273l-1.08-0.82l-0.352,0.428
					l1.067,0.863l-0.399,0.514c-0.158,0.195-0.475-0.079-0.475-0.079l-1.75-1.452c-0.281-0.198-0.182-0.434-0.182-0.434l0.703-0.902
					l-0.461-0.354c0,0-0.813,1.02-0.84,1.058c-0.385,0.434,0.096,0.787,0.096,0.787l2.177,1.885
					c0.317,0.274,0.476,0.196,0.622,0.082c-0.245,0.354,0.146,0.587,0.146,0.587l2.082,1.848c0,0,0.434,0.311,0.793-0.157
					L782.267-2907.352z M781.328-2906.958c-0.019,0.04-0.271,0.354-0.271,0.354c-0.273,0.276-0.52,0.081-0.52,0.081l-1.603-1.377
					c-0.274-0.234-0.313-0.312-0.236-0.432l0.435-0.593l1.961,1.573C781.231-2907.233,781.47-2907.155,781.328-2906.958z"/>
				<path fill="#077E40" d="M784.027-2927.98l-1.76-0.081c-0.319,0-0.566,0.156-0.577,0.982c-0.084,0.823,0.127,0.939,0.528,1.02
					l2.416,0.197c0,0,0.246,0.077,0.65-0.472l0.615-0.86c0.184-0.201,0.404-0.163,0.979-0.122l1.517,0.076
					c0.175,0.045,0.381,0.079,0.373,0.313l-0.066,0.554c-0.012,0.231-0.149,0.312-0.423,0.231l-1.641-0.152l-0.038,0.628l2.127,0.23
					c0.493,0,0.659-0.354,0.67-0.668l0.077-1.06c0.018-0.472-0.264-0.67-0.747-0.711l-2.374-0.07c-0.389,0-0.657,0-0.764,0.195
					l-0.709,0.944c-0.334,0.47-0.519,0.312-0.519,0.312l-1.608-0.081c-0.383,0-0.494-0.115-0.443-0.508
					c0.04-0.396,0.072-0.473,0.521-0.434l1.157,0.078L784.027-2927.98z"/>
				<polygon fill="#077E40" points="787.689,-2917.774 787.031,-2917.968 786.785,-2917.265 784.166,-2918.208 784.347,-2918.754 
					783.766,-2918.948 783.578,-2918.44 780.691,-2919.46 780.867,-2920.007 780.336,-2920.203 779.963,-2919.149 
					787.199,-2916.399 				"/>
				<polygon fill="#077E40" points="789.272,-2925.053 788.694,-2925.097 788.594,-2924.267 781.525,-2925.215 781.435,-2924.701 
					789.065,-2923.562 				"/>
				<polygon fill="#077E40" points="785.1,-2911.667 778.289,-2915.399 778.041,-2914.927 781.143,-2912.376 777.408,-2913.867 
					777.094,-2913.401 783.543,-2909.117 783.941,-2909.664 779.858,-2912.296 784.366,-2910.449 780.51,-2913.514 
					784.758,-2911.117 				"/>
				<path fill="#077E40" d="M785.336-2920.679l2.972,0.781l0.188-0.666l-3.181-0.787c0,0-0.431,0-0.537,0.234
					c-0.03-0.154-0.073-0.467-0.474-0.467l-2.693-0.629c0,0-0.623-0.237-0.744,0.271l-0.431,1.414l7.399,2.356l0.197-0.669
					l-3.328-0.977l0.188-0.71C784.963-2920.76,785.138-2920.721,785.336-2920.679z M784.092-2920.014l-2.869-0.822l0.146-0.591
					c0,0,0-0.314,0.34-0.198c0.355,0.118,2.291,0.588,2.291,0.588s0.389,0.084,0.316,0.358L784.092-2920.014z"/>
				<polygon fill="#077E40" points="779.013,-2916.968 786.024,-2913.589 786.306,-2914.217 781.084,-2916.576 786.67,-2915.16 
					786.944,-2915.787 779.758,-2918.698 779.529,-2918.183 783.525,-2916.498 779.217,-2917.478 				"/>
				<path fill="#077E40" d="M788.847-2922.644l0.101-0.592l-7.733-0.625l-0.129,0.591l7.412,2.354l0.154-0.667l-1.762-0.471
					l0.156-0.747L788.847-2922.644z M786.412-2922.176l-3.873-1.094l4.002,0.427L786.412-2922.176z"/>
				<g>
					<polygon fill="#077E40" points="726.959,-2925.664 727.013,-2925.111 719.392,-2924.13 719.314,-2924.838 					"/>
					<polygon fill="#077E40" points="727.143,-2924.722 719.488,-2923.583 719.586,-2922.953 724.955,-2923.858 719.754,-2921.856 
						719.852,-2921.226 727.481,-2922.916 727.379,-2923.387 722.59,-2922.443 727.232,-2924.208 					"/>
					<polygon fill="#077E40" points="719.293,-2925.111 722.957,-2926.884 726.938,-2925.901 726.879,-2926.451 723.817,-2927.195 
						726.86,-2927.312 726.84,-2927.825 719.104,-2927.592 719.117,-2926.918 722.129,-2927.119 719.233,-2925.782 					"/>
					<path fill="#077E40" d="M723.648-2919.067l-0.301-1.057l-0.562,0.151l0.137,0.471l-1.433,0.472
						c-0.215,0.042-0.468-0.077-0.53-0.312l-0.105-0.474c-0.079-0.273,0.176-0.354,0.4-0.393l5.41-1.414
						c0.37-0.076,0.5-0.076,0.627,0.428c0.108,0.396-0.117,0.514-0.412,0.554l-1.602,0.471l0.158,0.552l2.045-0.625
						c0.419-0.123,0.637-0.277,0.381-1.146c-0.206-0.821-0.381-0.939-0.904-0.821l-6.162,1.454c-0.498,0.156-0.748,0.35-0.608,0.942
						c0,0,0.176,0.944,0.726,0.902l-0.404,0.121l0.209,0.664L723.648-2919.067z"/>
				</g>
				<path fill="#077E40" d="M771.453-2907.282l4.045,5.145c0.219,0.317,0.268,0.469,0.104,0.63l-0.361,0.312
					c-0.247,0.156-0.43,0-0.627-0.271l-3.899-5.26l-0.438,0.309l4.133,5.812c0.223,0.355,0.559,0.397,0.823,0.197l0.992-0.786
					c0.288-0.234,0.499-0.433,0.194-0.863l-4.586-5.534L771.453-2907.282z"/>
				<path fill="#077E40" d="M753.953-2900.644c0.01-0.397-0.068-0.67-0.963-0.71c-0.861-0.078-1.049,0.157-1.068,0.587l-0.619,6.444
					c-0.031,0.471,0.363,0.666,0.847,0.666l0.938,0.038c0.48,0.042,0.721-0.152,0.748-0.625L753.953-2900.644z M752.767-2894.207
					l-0.491-0.035c-0.249,0-0.306-0.276-0.296-0.513l0.412-5.538c0.039-0.352,0.09-0.509,0.591-0.474
					c0.399,0.043,0.448,0.159,0.431,0.514l-0.193,5.656C753.207-2894.359,752.998-2894.207,752.767-2894.207z"/>
				<path fill="#077E40" d="M767.802-2904.067c-0.207-0.352-0.409-0.547-1.198-0.153c-0.784,0.356-0.82,0.668-0.636,1.06
					l2.632,5.895c0.216,0.426,0.638,0.392,1.069,0.192l0.844-0.43c0.431-0.239,0.52-0.471,0.314-0.902L767.802-2904.067z
					 M769.932-2897.858l-0.451,0.196c-0.218,0.076-0.36-0.08-0.472-0.313l-2.406-5.026c-0.146-0.354-0.166-0.475,0.288-0.708
					c0.36-0.155,0.471-0.079,0.637,0.271l2.524,4.99C770.16-2898.253,770.15-2897.974,769.932-2897.858z"/>
				<polygon fill="#077E40" points="755.66,-2897.034 755.643,-2897.698 755.101,-2897.66 755.033,-2900.684 755.707,-2900.684 
					755.679,-2901.315 754.521,-2901.274 754.504,-2893.537 755.16,-2893.537 755.11,-2896.994 				"/>
				<path fill="#077E40" d="M760.402-2898.367l-0.581-2.944c0,0-0.087-0.549-0.598-0.434l-1.462,0.277l0.902,7.617l0.715-0.121
					l-0.485-3.412l1.146-0.236C760.039-2897.621,760.551-2897.621,760.402-2898.367z M759.5-2898.169l-0.72,0.156l-0.38-2.985
					l0.473-0.08c0.235-0.081,0.399,0,0.42,0.158l0.432,2.355C759.724-2898.565,759.774-2898.213,759.5-2898.169z"/>
				<polygon fill="#077E40" points="763.177,-2894.716 763.043,-2895.265 762.246,-2895.071 761.6,-2897.858 762.141,-2898.013 
					761.99,-2898.604 761.463,-2898.487 760.767,-2901.469 761.383,-2901.629 761.248,-2902.218 760.097,-2901.903 
					761.691,-2894.323 				"/>
				<polygon fill="#077E40" points="774.444,-2899.859 774.125,-2900.33 773.399,-2899.859 771.78,-2902.257 772.26,-2902.649 
					771.947,-2903.119 771.453,-2902.767 769.744,-2905.361 770.373,-2905.791 770.066,-2906.265 769.01,-2905.556 
					773.147,-2898.955 				"/>
				<polygon fill="#077E40" points="772.927,-2898.84 772.61,-2899.391 771.897,-2898.955 768.312,-2905.123 767.861,-2904.85 
					771.619,-2898.094 				"/>
				<polygon fill="#077E40" points="764.969,-2895.225 762.817,-2902.017 763.33,-2902.179 763.158,-2902.724 761.549,-2902.257 
					761.719,-2901.669 762.283,-2901.864 764.309,-2895.029 				"/>
				<polygon fill="#077E40" points="779.445,-2904.139 773.957,-2909.604 773.537,-2909.209 775.784,-2905.832 772.7,-2908.344 
					772.241,-2907.909 777.263,-2902.06 777.777,-2902.534 774.586,-2906.182 778.377,-2903.041 775.549,-2907.168 
					778.965,-2903.669 				"/>
				<path fill="#077E40" d="M766.516-2899.034l1.139,2.826l0.657-0.237l-1.344-3.178c0,0-0.198-0.159-0.444-0.119
					c0.106-0.116,0.329-0.314,0.079-0.667l-1.078-2.513c0,0-0.188-0.67-0.668-0.434l-1.402,0.51l2.541,7.345l0.654-0.234
					l-1.197-3.299l0.674-0.234C766.357-2899.391,766.438-2899.233,766.516-2899.034z M765.232-2899.623l-1.038-2.789l0.537-0.237
					c0,0,0.258-0.195,0.38,0.155c0.127,0.315,0.879,2.201,0.879,2.201s0.146,0.313-0.121,0.394L765.232-2899.623z"/>
				<path fill="#077E40" d="M743.465-2901.041l0.672-1.607c0.109-0.315,0.059-0.586-0.736-0.901
					c-0.716-0.353-0.915-0.194-1.107,0.196l-1.043,2.156c0,0-0.139,0.235,0.227,0.789l0.591,0.865
					c0.187,0.312,0.049,0.431-0.062,0.668l-0.756,1.726c-0.067,0.157-0.215,0.312-0.44,0.195l-0.484-0.234
					c-0.214-0.075-0.174-0.233-0.055-0.508l0.676-1.455l-0.569-0.274l-0.933,1.964c-0.178,0.434,0.099,0.707,0.382,0.828l0.963,0.43
					c0.441,0.196,0.777,0.037,0.959-0.393l0.905-2.276c0.14-0.354,0.198-0.588-0.028-0.905l-0.56-0.825
					c-0.345-0.512-0.16-0.627-0.16-0.627l0.659-1.455c0.164-0.352,0.322-0.392,0.626-0.276c0.353,0.161,0.427,0.243,0.249,0.671
					l-0.471,1.059L743.465-2901.041z"/>
				<path fill="#077E40" d="M734.222-2910.073l-4.909,4.558c-0.245,0.238-0.401,0.313-0.567,0.156l-0.373-0.474
					c-0.166-0.155-0.127-0.309,0.127-0.545l5.086-4.358l-0.326-0.397l-5.467,4.559c-0.295,0.274-0.295,0.586-0.082,0.825
					l0.701,0.784c0.332,0.391,0.596,0.47,0.959,0.151l5.174-4.903L734.222-2910.073z"/>
				<polygon fill="#077E40" points="735.888,-2898.681 736.185,-2899.195 735.44,-2899.668 737.069,-2902.06 737.51,-2901.784 
					737.854,-2902.295 737.42,-2902.609 739.111,-2905.123 739.719,-2904.731 740.033,-2905.241 738.996,-2905.907 
					734.557,-2899.585 				"/>
				<polygon fill="#077E40" points="744.832,-2894.798 746.778,-2901.705 747.457,-2901.551 747.594,-2902.102 745.799,-2902.609 
					745.61,-2902.017 746.258,-2901.823 744.195,-2894.991 				"/>
				<path fill="#077E40" d="M739.295-2900.094l-1.312,2.509l0.62,0.317l1.43-2.827c0.236-0.479,0-0.63-0.096-0.708
					c0.145,0,0.422,0.078,0.588-0.24c0.352-0.627,1.293-2.51,1.293-2.51s0.312-0.55-0.146-0.785l-1.287-0.707l-3.943,6.638
					l0.58,0.351l1.734-3.021l0.424,0.275C739.551-2900.573,739.396-2900.293,739.295-2900.094z M739.059-2901.629l1.483-2.591
					l0.541,0.235c0.284,0.157,0.078,0.393-0.021,0.547l-1.06,2.006c0,0-0.098,0.273-0.344,0.158L739.059-2901.629z"/>
				<polygon fill="#077E40" points="744.961,-2902.922 745.424,-2902.767 742.957,-2895.419 742.282,-2895.617 				"/>
				<polygon fill="#077E40" points="736.645,-2907.718 737.028,-2907.364 732.141,-2901.39 731.658,-2901.784 				"/>
				<polygon fill="#077E40" points="734.907,-2909.325 729.422,-2903.864 729.864,-2903.438 733.565,-2907.244 730.601,-2902.767 
					731.078,-2902.334 736.166,-2908.067 735.783,-2908.46 732.879,-2905.279 735.225,-2908.972 				"/>
				<polygon fill="#077E40" points="749.849,-2901.669 749.27,-2901.746 748.338,-2898.803 748.504,-2901.903 747.905,-2902.017 
					747.789,-2897.66 747.032,-2894.284 747.7,-2894.164 748.348,-2897.543 				"/>
				<polygon fill="#077E40" points="737.226,-2907.205 733.135,-2900.608 733.592,-2900.253 738.767,-2906.067 738.307,-2906.42 
					734.683,-2902.179 737.686,-2906.852 				"/>
				<g>
					<path fill="#077E40" d="M722.638-2913.41l0.283,0.549l6.608-4.048l-0.265-0.546l-7.344,2.438l0.258,0.625l1.707-0.666
						l0.314,0.706L722.638-2913.41z M724.359-2915.219l3.775-1.375l-3.504,1.965L724.359-2915.219z"/>
					<polygon fill="#077E40" points="723.944,-2910.976 724.248,-2910.426 730.875,-2914.431 730.582,-2914.866 727.379,-2912.978 
						726.929,-2913.806 730.179,-2915.571 729.983,-2916.002 723.097,-2912.508 723.393,-2911.876 726.418,-2913.569 
						726.9,-2912.705 					"/>
					<path fill="#077E40" d="M731.691-2912.037c0,0,0.596-0.233,0.172-0.865c-0.408-0.666-0.688-1.056-0.688-1.056l-6.524,4.161
						l1,1.455c0,0,0.343,0.551,0.886,0.117C727.076-2908.659,731.691-2912.037,731.691-2912.037z M725.799-2909.169l-0.305-0.435
						l5.565-3.729c0,0,0.239,0.355,0.374,0.551c0.146,0.235-0.235,0.395-0.305,0.472c-0.069,0.075-4.22,2.944-4.75,3.339
						C726.115-2908.817,726.017-2908.854,725.799-2909.169z"/>
					<polygon fill="#077E40" points="724.857,-2916.945 725.104,-2916.394 725.662,-2916.627 725.436,-2917.218 728.215,-2918.282 
						728.559,-2917.535 729.117,-2917.774 728.644,-2918.987 721.414,-2916.277 721.627,-2915.686 					"/>
				</g>
			</g>
			<polygon fill="#077E40" points="752.576,-2942.121 751.696,-2941.651 752,-2939.567 752.776,-2939.803 			"/>
			<polygon fill="#077E40" points="752.815,-2939.412 752.047,-2939.174 752.219,-2937.366 752.891,-2937.448 			"/>
			<polygon fill="#077E40" points="752.914,-2942.671 752.502,-2945.734 754.318,-2946.01 754.304,-2942.748 			"/>
			<polygon fill="#077E40" points="750.988,-2944.831 751.627,-2942.04 752.57,-2942.552 752.157,-2945.574 			"/>
			<polygon fill="#077E40" points="752.95,-2942.315 753.138,-2939.923 754.304,-2939.923 754.304,-2942.394 			"/>
			<polygon fill="#077E40" points="753.2,-2939.526 753.254,-2937.487 754.322,-2937.487 754.322,-2939.526 			"/>
			<polygon fill="#077E40" points="756.386,-2942.121 757.271,-2941.651 756.969,-2939.567 756.192,-2939.803 			"/>
			<polygon fill="#077E40" points="756.154,-2939.412 756.926,-2939.174 756.748,-2937.366 756.073,-2937.448 			"/>
			<polygon fill="#077E40" points="756.051,-2942.671 756.467,-2945.734 754.658,-2946.01 754.658,-2942.748 			"/>
			<polygon fill="#077E40" points="757.979,-2944.831 757.338,-2942.04 756.399,-2942.552 756.806,-2945.574 			"/>
			<polygon fill="#077E40" points="756.017,-2942.315 755.83,-2939.923 754.658,-2939.923 754.658,-2942.394 			"/>
			<polygon fill="#077E40" points="755.787,-2939.526 755.729,-2937.487 754.658,-2937.487 754.658,-2939.526 			"/>
			<path fill="#077E40" d="M752.618-2917.81l-0.608,0.593h4.959l-0.625-0.593h-0.035c0-0.117,0-0.117,0-0.156
				c0-0.901,0.255-1.22,0.4-1.373v-17.676l-0.658-0.04v19.244h-0.705c0-0.079,0-0.196,0-0.315c0-0.703,0.171-1.097,0.354-1.293
				l-0.009-17.677h-1.032v17.64c0.208,0.233,0.416,0.588,0.416,1.369c0,0.121,0,0.198,0,0.276h-1.158c0-0.079,0-0.156,0-0.276
				c0-0.781,0.205-1.135,0.407-1.369l-0.019-17.64h-1.012l-0.006,17.677c0.18,0.196,0.352,0.59,0.352,1.293c0,0.119,0,0.236,0,0.315
				h-0.727v-19.244l-0.658,0.04v17.676c0.147,0.153,0.401,0.472,0.401,1.373c0,0.039,0,0.039,0,0.156H752.618L752.618-2917.81z"/>
			<g>
				<path fill="#077E40" d="M759.313-2920.481c0,0-0.125,0.117-0.315,0.474c0,0,0.98,0.746,0.951,2.552
					C759.949-2917.455,760.443-2919.379,759.313-2920.481z"/>
				<g>
					<path fill="#077E40" d="M762.883-2920.443c0,0.121-0.037,0.32-0.412,0.32c-0.397,0-0.418-0.396-0.418-0.396
						c-0.12,0.276-0.269,0.396-0.504,0.352c-0.239,0.045-0.387-0.275-0.467-0.312l-0.096,0.117
						c-0.039,0.082-0.098,0.102-0.212,0.312c0,0,0.974,0.788,0.956,2.596c0,0,0.301-1.22-0.129-2.277
						c0.473,0,0.451-0.354,0.451-0.354s0.043,0.313,0.461,0.313C762.914-2919.774,762.904-2920.284,762.883-2920.443z"/>
					<path fill="#077E40" d="M762.883-2920.518c0,0,0,0.037,0,0.075C762.883-2920.481,762.883-2920.518,762.883-2920.518z"/>
				</g>
				<g>
					<path fill="#077E40" d="M767.568-2920.443c0,0.121-0.049,0.32-0.413,0.32c-0.403,0-0.423-0.357-0.423-0.357
						c-0.12,0.275-0.273,0.357-0.498,0.357c-0.244,0-0.393-0.284-0.475-0.357l-0.094,0.169c-0.062,0.073-0.111,0.122-0.213,0.305
						c0,0,0.975,0.746,0.956,2.552c0,0,0.296-1.18-0.129-2.236c0.472,0,0.451-0.395,0.451-0.395s0.039,0.312,0.462,0.312
						C767.588-2919.774,767.588-2920.241,767.568-2920.443z"/>
					<path fill="#077E40" d="M767.554-2920.481c0,0,0.014,0,0.014,0.038C767.568-2920.481,767.554-2920.481,767.554-2920.481z"/>
				</g>
				<path fill="#077E40" d="M764.174-2920.443c0,0-0.059,1.337-1.024,2.477l0.235,0.552c0,0,0.789-0.943,0.789-2.202
					c0,0,0.136,1.454,0.998,2.202l0.14-0.552C764.385-2918.945,764.174-2920.443,764.174-2920.443z"/>
			</g>
			<g>
				<path fill="#077E40" d="M743.342-2919.106c-0.067-0.08-0.106-0.233-0.106-0.395c0-0.232,0.056-0.393,0.166-0.471
					c0.078-0.079,0.167-0.079,0.263-0.079c0.143,0,0.26,0.042,0.338,0.157c0.078,0.079,0.116,0.237,0.116,0.393
					c0,0.197-0.069,0.357-0.194,0.472c-0.082,0.042-0.16,0.042-0.239,0.042C743.528-2918.987,743.418-2919.029,743.342-2919.106z
					 M742.897-2918.75c0.198,0.199,0.414,0.274,0.647,0.274c0.172,0,0.305-0.04,0.424-0.117c0.06-0.042,0.119-0.08,0.168-0.157
					c-0.01,0.234-0.03,0.434-0.082,0.551c-0.075,0.193-0.215,0.312-0.409,0.312c-0.11,0-0.187-0.039-0.255-0.077
					c-0.061-0.04-0.102-0.121-0.109-0.233h-0.598c0.029,0.272,0.126,0.472,0.312,0.588c0.188,0.158,0.393,0.238,0.621,0.238
					c0.479,0,0.803-0.238,0.989-0.713c0.09-0.271,0.137-0.548,0.137-0.941c0-0.391-0.046-0.664-0.146-0.899
					c-0.176-0.434-0.491-0.628-0.952-0.628c-0.306,0-0.55,0.114-0.739,0.317c-0.193,0.189-0.281,0.468-0.281,0.783
					C742.625-2919.142,742.713-2918.909,742.897-2918.75z"/>
				<path fill="#077E40" d="M747.849-2918.399h0.588c0,0.117,0.021,0.237,0.056,0.312c0.082,0.121,0.208,0.198,0.406,0.198
					c0.119,0,0.214-0.039,0.301-0.117c0.089-0.081,0.138-0.193,0.138-0.353c0-0.192-0.088-0.314-0.242-0.393
					c-0.102-0.04-0.25-0.04-0.444-0.04v-0.432c0.194,0,0.334-0.039,0.412-0.08c0.129-0.038,0.2-0.155,0.2-0.354
					c0-0.119-0.039-0.197-0.1-0.274c-0.068-0.078-0.168-0.12-0.296-0.12c-0.137,0-0.243,0.042-0.313,0.12
					c-0.061,0.116-0.096,0.236-0.09,0.392h-0.559c0-0.154,0.032-0.313,0.071-0.433c0.047-0.116,0.126-0.233,0.233-0.353
					c0.078-0.084,0.174-0.12,0.283-0.16c0.109-0.035,0.236-0.035,0.393-0.035c0.293,0,0.531,0.035,0.709,0.195
					c0.176,0.155,0.273,0.353,0.273,0.63c0,0.154-0.057,0.312-0.166,0.432c-0.07,0.075-0.14,0.154-0.209,0.154
					c0.049,0,0.127,0.075,0.239,0.16c0.146,0.155,0.226,0.354,0.226,0.588c0,0.232-0.09,0.47-0.27,0.666
					c-0.172,0.195-0.439,0.316-0.791,0.316c-0.436,0-0.738-0.161-0.902-0.436C747.905-2917.966,747.858-2918.162,747.849-2918.399z"
					/>
				<path fill="#077E40" d="M746.013-2918.867c0.076-0.078,0.164-0.117,0.262-0.117c0.131,0,0.238,0.076,0.326,0.157
					c0.088,0.078,0.13,0.234,0.13,0.394c0,0.155-0.042,0.311-0.11,0.39c-0.078,0.119-0.187,0.158-0.324,0.158
					c-0.127,0-0.244-0.039-0.332-0.158c-0.09-0.077-0.129-0.232-0.129-0.39C745.836-2918.635,745.893-2918.789,746.013-2918.867z
					 M746.996-2920.323c-0.177-0.158-0.402-0.235-0.679-0.235c-0.196,0-0.376,0.04-0.511,0.115
					c-0.137,0.121-0.258,0.238-0.348,0.394c-0.094,0.157-0.166,0.356-0.201,0.631c-0.021,0.157-0.032,0.354-0.032,0.59
					c0,0.394,0.067,0.703,0.216,0.939c0.176,0.354,0.461,0.514,0.854,0.514c0.354,0,0.621-0.121,0.789-0.353
					c0.172-0.199,0.254-0.471,0.254-0.748c0-0.272-0.088-0.509-0.254-0.708c-0.179-0.194-0.404-0.271-0.668-0.271
					c-0.131,0-0.246,0.037-0.346,0.075c-0.098,0.04-0.177,0.077-0.256,0.194c0.021-0.232,0.05-0.431,0.089-0.548
					c0.088-0.236,0.226-0.315,0.421-0.315c0.131,0,0.227,0.042,0.297,0.121c0.035,0.076,0.059,0.117,0.059,0.154h0.6
					C747.25-2920.007,747.16-2920.203,746.996-2920.323z"/>
				<path fill="#077E40" d="M742.293-2917.927h-0.373v-2.516h-0.492c0,0.036-0.01,0.08-0.03,0.121
					c-0.029,0.082-0.069,0.154-0.119,0.234c-0.075,0.079-0.176,0.116-0.292,0.157c-0.027,0-0.077,0-0.129,0v0.43h0.454v1.571h-0.442
					v0.515h1.424V-2917.927L742.293-2917.927z"/>
			</g>
			<path fill="#077E40" d="M765.02-2909.209l-3.392-0.827l2.855-0.232l-2.295-4.712c-2.543,0.747-4.688-0.785-5.51-0.9
				c-0.98-0.159-1.549,0.236-2.303,0.863c-0.691-0.748-1.621-1.142-2.584-0.863c-1.748,0.351-2.808,1.411-5.307,0.822l-2.223,4.596
				l2.925,0.471l-3.414,0.513l-0.817,1.611l10.141-1.34c0.238,0.355,0.748,0.789,1.279,0.749c0.428-0.079,0.844-0.313,1.078-0.709
				l10.387,1.376L765.02-2909.209z M754.334-2909.246c-0.398-0.042-0.586-0.473-0.578-0.512c-0.047-0.432,0.461-1.729,0.578-2.358
				c0.116,0.629,0.639,1.967,0.551,2.358C754.893-2909.719,754.738-2909.287,754.334-2909.246z"/>
		</g>
	</g>
	<g>
		<g>
			<path fill="#58595B" d="M814.632-2948.845c-0.307,0.137-1.056,0.433-1.911,0.433c-1.605,0-2.904-0.993-2.904-3.844
				c0-1.932,0.634-3.674,2.756-3.674c1.489,0,2.345,0.866,2.345,2.112h-1.225c0-0.443-0.127-1.267-1.151-1.267
				c-1.373,0-1.562,1.668-1.562,2.661c0,1.827,0.443,3.168,1.953,3.168c0.897,0,1.51-0.454,1.7-0.57V-2948.845z"/>
			<path fill="#58595B" d="M815.488-2952.171c0-1.975,0.603-3.759,2.841-3.759s2.851,1.784,2.851,3.759
				c0,1.964-0.612,3.759-2.851,3.759S815.488-2950.207,815.488-2952.171z M818.329-2949.257c1.457,0,1.689-1.721,1.689-2.915
				c0-1.193-0.232-2.914-1.689-2.914s-1.679,1.721-1.679,2.914C816.65-2950.978,816.872-2949.257,818.329-2949.257z"/>
			<path fill="#58595B" d="M822.502-2955.814h1.056v6.441h2.799v0.845h-3.854V-2955.814z"/>
			<path fill="#58595B" d="M827.191-2955.814h1.056v6.441h2.799v0.845h-3.854V-2955.814z"/>
			<path fill="#58595B" d="M831.881-2955.814h4.023v0.845h-2.968v2.228h2.819v0.845h-2.819v2.523h3.062v0.845h-4.118V-2955.814z"/>
			<path fill="#58595B" d="M842.135-2949.098c-0.222,0.169-1.057,0.687-2.26,0.687c-1.88,0-3.073-1.162-3.073-3.981
				c0-2.006,0.792-3.537,2.862-3.537c1.319,0,2.428,0.665,2.428,2.069h-1.172c0-0.623-0.349-1.225-1.267-1.225
				c-1.373,0-1.689,1.373-1.689,2.692c0,1.383,0.2,3.136,1.879,3.136c0.645,0,1.162-0.18,1.235-0.285v-2.344h-1.552v-0.845h2.608
				V-2949.098z"/>
			<path fill="#58595B" d="M843.616-2955.814h4.023v0.845h-2.968v2.228h2.819v0.845h-2.819v2.523h3.062v0.845h-4.118V-2955.814z"/>
			<path fill="#58595B" d="M851.664-2952.171c0-1.975,0.603-3.759,2.841-3.759s2.851,1.784,2.851,3.759
				c0,1.964-0.612,3.759-2.851,3.759S851.664-2950.207,851.664-2952.171z M854.505-2949.257c1.457,0,1.689-1.721,1.689-2.915
				c0-1.193-0.232-2.914-1.689-2.914s-1.679,1.721-1.679,2.914C852.826-2950.978,853.048-2949.257,854.505-2949.257z"/>
			<path fill="#58595B" d="M858.677-2955.814h3.907v0.845h-2.852v2.228h2.703v0.845h-2.703v3.368h-1.056V-2955.814z"/>
			<path fill="#58595B" d="M871.151-2948.845c-0.307,0.137-1.056,0.433-1.911,0.433c-1.605,0-2.904-0.993-2.904-3.844
				c0-1.932,0.634-3.674,2.756-3.674c1.489,0,2.345,0.866,2.345,2.112h-1.225c0-0.443-0.127-1.267-1.151-1.267
				c-1.373,0-1.562,1.668-1.562,2.661c0,1.827,0.443,3.168,1.953,3.168c0.897,0,1.51-0.454,1.7-0.57V-2948.845z"/>
			<path fill="#58595B" d="M872.008-2952.171c0-1.975,0.603-3.759,2.841-3.759s2.851,1.784,2.851,3.759
				c0,1.964-0.612,3.759-2.851,3.759S872.008-2950.207,872.008-2952.171z M874.848-2949.257c1.457,0,1.689-1.721,1.689-2.915
				c0-1.193-0.232-2.914-1.689-2.914s-1.679,1.721-1.679,2.914C873.17-2950.978,873.391-2949.257,874.848-2949.257z"/>
			<path fill="#58595B" d="M879.01-2955.814h1.489l2.069,5.966h0.021l2.069-5.966h1.479v7.286h-0.951v-6.04h-0.021l-2.091,6.04
				h-1.003l-2.091-6.04h-0.021v6.04h-0.95V-2955.814z"/>
			<path fill="#58595B" d="M887.819-2955.814h1.753c1.077,0,2.555,0.158,2.555,2.069c0,1.785-1.573,2.049-2.312,2.049h-0.94v3.167
				h-1.056V-2955.814z M888.875-2952.54h0.75c0.771,0,1.341-0.317,1.341-1.204c0-1.151-0.792-1.225-1.341-1.225h-0.75V-2952.54z"/>
			<path fill="#58595B" d="M897.958-2950.682c0,1.562-1.056,2.27-2.481,2.27c-1.415,0-2.461-0.708-2.461-2.27v-5.132h1.057v4.931
				c0,0.539,0,1.626,1.394,1.626c1.437,0,1.437-1.087,1.437-1.626v-4.931h1.056V-2950.682z"/>
			<path fill="#58595B" d="M900.526-2954.969h-1.816v-0.845h4.688v0.845h-1.816v6.441h-1.056V-2954.969z"/>
			<path fill="#58595B" d="M904.244-2955.814h4.023v0.845H905.3v2.228h2.819v0.845H905.3v2.523h3.062v0.845h-4.118V-2955.814z"/>
			<path fill="#58595B" d="M909.514-2955.814h2.112c1.14,0,2.133,0.485,2.133,1.911c0,1.14-0.697,1.542-1.437,1.721v0.021
				c0.993,0.211,1.099,0.845,1.257,1.605l0.433,2.027h-0.961l-0.443-1.616c-0.296-1.045-0.422-1.521-1.436-1.521h-0.603v3.136
				h-1.056V-2955.814z M910.57-2952.509h0.613c0.738,0,1.521-0.295,1.521-1.267c0-0.887-0.497-1.193-1.278-1.193h-0.855V-2952.509z"
				/>
			<path fill="#58595B" d="M920.964-2952.488c0.708,0.401,1.531,0.855,1.531,2.006c0,1.404-1.13,2.07-2.629,2.07
				c-0.866,0-1.626-0.211-1.849-0.285v-1.098c0.423,0.243,1.12,0.539,1.933,0.539c0.687,0,1.384-0.285,1.384-1.077
				c0-0.76-0.613-1.066-1.183-1.404l-0.666-0.391c-0.676-0.391-1.583-0.803-1.583-1.922c0-1.299,1.056-1.879,2.418-1.879
				c0.696,0,1.414,0.148,1.657,0.211v0.993c-0.137-0.042-0.972-0.359-1.71-0.359c-0.719,0-1.204,0.338-1.204,0.95
				c0,0.57,0.644,0.919,1.183,1.225L920.964-2952.488z"/>
			<path fill="#58595B" d="M928.061-2948.845c-0.307,0.137-1.056,0.433-1.911,0.433c-1.605,0-2.904-0.993-2.904-3.844
				c0-1.932,0.634-3.674,2.756-3.674c1.489,0,2.345,0.866,2.345,2.112h-1.225c0-0.443-0.127-1.267-1.151-1.267
				c-1.373,0-1.562,1.668-1.562,2.661c0,1.827,0.443,3.168,1.953,3.168c0.897,0,1.51-0.454,1.7-0.57V-2948.845z"/>
			<path fill="#58595B" d="M929.277-2955.814h1.056v7.286h-1.056V-2955.814z"/>
			<path fill="#58595B" d="M932.012-2955.814h4.023v0.845h-2.968v2.228h2.819v0.845h-2.819v2.523h3.062v0.845h-4.118V-2955.814z"/>
			<path fill="#58595B" d="M937.294-2955.814h1.32l2.872,5.702h0.021v-5.702h0.95v7.286h-1.246l-2.945-5.839h-0.021v5.839h-0.95
				V-2955.814z"/>
			<path fill="#58595B" d="M948.594-2948.845c-0.307,0.137-1.056,0.433-1.911,0.433c-1.605,0-2.904-0.993-2.904-3.844
				c0-1.932,0.634-3.674,2.756-3.674c1.489,0,2.345,0.866,2.345,2.112h-1.225c0-0.443-0.127-1.267-1.151-1.267
				c-1.373,0-1.562,1.668-1.562,2.661c0,1.827,0.443,3.168,1.953,3.168c0.897,0,1.51-0.454,1.7-0.57V-2948.845z"/>
			<path fill="#58595B" d="M949.81-2955.814h4.023v0.845h-2.968v2.228h2.819v0.845h-2.819v2.523h3.062v0.845h-4.118V-2955.814z"/>
			<path fill="#58595B" d="M961.344-2948.56c-0.328,0.095-0.75,0.148-1.12,0.148c-1.33,0-2.302-0.57-2.302-1.975
				c0-1.362,0.803-1.689,1.395-1.827v-0.021c-0.454-0.148-1.278-0.38-1.278-1.552c0-1.362,1.066-1.774,2.112-1.774
				c0.38,0,0.792,0.063,1.13,0.179v0.75c-0.212-0.095-0.57-0.264-1.024-0.264c-0.718,0-1.056,0.539-1.056,1.172
				c0,0.96,0.76,1.119,0.992,1.119h1.942v-1.996l0.951-0.602v2.598h1.288v0.739h-1.288v1.763c0,0.38,0.053,0.95,0.771,0.95
				c0.169,0,0.327-0.021,0.518-0.074v0.739c-0.274,0.053-0.497,0.074-0.75,0.074c-1.014,0-1.489-0.349-1.489-1.288v-2.165h-1.942
				c-0.211,0-1.108,0.063-1.108,1.425c0,0.887,0.549,1.288,1.288,1.288c0.443,0,0.739-0.084,0.972-0.169V-2948.56z"/>
			<path fill="#58595B" d="M968.389-2955.814h4.023v0.845h-2.968v2.228h2.819v0.845h-2.819v2.523h3.062v0.845h-4.118V-2955.814z"/>
			<path fill="#58595B" d="M973.671-2955.814h1.32l2.872,5.702h0.021v-5.702h0.95v7.286h-1.246l-2.945-5.839h-0.021v5.839h-0.95
				V-2955.814z"/>
			<path fill="#58595B" d="M985.489-2949.098c-0.222,0.169-1.057,0.687-2.26,0.687c-1.88,0-3.073-1.162-3.073-3.981
				c0-2.006,0.792-3.537,2.862-3.537c1.319,0,2.428,0.665,2.428,2.069h-1.172c0-0.623-0.349-1.225-1.267-1.225
				c-1.373,0-1.689,1.373-1.689,2.692c0,1.383,0.2,3.136,1.879,3.136c0.645,0,1.162-0.18,1.235-0.285v-2.344h-1.552v-0.845h2.608
				V-2949.098z"/>
			<path fill="#58595B" d="M986.969-2955.814h1.056v7.286h-1.056V-2955.814z"/>
			<path fill="#58595B" d="M989.705-2955.814h1.32l2.872,5.702h0.021v-5.702h0.95v7.286h-1.246l-2.945-5.839h-0.021v5.839h-0.95
				V-2955.814z"/>
			<path fill="#58595B" d="M996.549-2955.814h4.023v0.845h-2.968v2.228h2.819v0.845h-2.819v2.523h3.062v0.845h-4.118V-2955.814z"/>
			<path fill="#58595B" d="M1001.83-2955.814h4.023v0.845h-2.968v2.228h2.819v0.845h-2.819v2.523h3.062v0.845h-4.118V-2955.814z"/>
			<path fill="#58595B" d="M1007.1-2955.814h2.112c1.14,0,2.133,0.485,2.133,1.911c0,1.14-0.697,1.542-1.437,1.721v0.021
				c0.993,0.211,1.099,0.845,1.257,1.605l0.433,2.027h-0.961l-0.443-1.616c-0.296-1.045-0.422-1.521-1.436-1.521h-0.603v3.136
				h-1.056V-2955.814z M1008.156-2952.509h0.613c0.738,0,1.521-0.295,1.521-1.267c0-0.887-0.497-1.193-1.278-1.193h-0.855V-2952.509
				z"/>
			<path fill="#58595B" d="M1012.783-2955.814h1.056v7.286h-1.056V-2955.814z"/>
			<path fill="#58595B" d="M1015.519-2955.814h1.32l2.872,5.702h0.021v-5.702h0.95v7.286h-1.246l-2.945-5.839h-0.021v5.839h-0.95
				V-2955.814z"/>
			<path fill="#58595B" d="M1027.337-2949.098c-0.222,0.169-1.057,0.687-2.26,0.687c-1.88,0-3.073-1.162-3.073-3.981
				c0-2.006,0.792-3.537,2.862-3.537c1.319,0,2.428,0.665,2.428,2.069h-1.172c0-0.623-0.349-1.225-1.267-1.225
				c-1.373,0-1.689,1.373-1.689,2.692c0,1.383,0.2,3.136,1.879,3.136c0.645,0,1.162-0.18,1.235-0.285v-2.344h-1.552v-0.845h2.608
				V-2949.098z"/>
		</g>
		<g>
			<g>
				<path fill="#231F20" d="M810.418-2924.84v-11.497h1.949v11.497H810.418z"/>
				<path fill="#231F20" d="M819.232-2924.84v-4.532c0-0.383,0.033-1.4-0.283-1.7c-0.135-0.133-0.351-0.15-0.533-0.15
					c-1.334,0-1.867,1.883-1.867,2.949v3.433h-1.85v-7.931h1.85v1.483h0.033c0.417-1.017,1.217-1.667,2.35-1.667
					c1.517,0,2.15,1.25,2.15,2.616v5.499H819.232z"/>
				<path fill="#231F20" d="M827.66-2935.221c-1.283,0-1.799,0.683-1.799,1.899v0.55h2.332v1.283h-2.332v6.648h-1.85v-6.648h-1.449
					v-1.283h1.449v-1.083c0-1.983,1.467-2.666,3.249-2.666c0.601,0,1.249,0.034,1.85,0.167v1.416
					C828.66-2935.104,828.144-2935.221,827.66-2935.221z"/>
				<path fill="#231F20" d="M832.524-2924.657c-2.517,0-3.499-1.85-3.499-4.149s0.982-4.149,3.499-4.149s3.499,1.85,3.499,4.149
					S835.041-2924.657,832.524-2924.657z M832.524-2931.655c-1.483,0-1.532,1.766-1.532,2.849s0.049,2.85,1.532,2.85
					s1.533-1.767,1.533-2.85S834.008-2931.655,832.524-2931.655z"/>
				<path fill="#231F20" d="M839.654-2928.323v3.482h-1.85v-7.931h1.85v1.466h0.033c0.616-1.1,1.232-1.649,2.566-1.649v1.933
					C840.353-2931.022,839.654-2930.189,839.654-2928.323z"/>
				<path fill="#231F20" d="M852.232-2924.84v-4.532c0-0.383,0.033-1.4-0.283-1.7c-0.133-0.133-0.35-0.15-0.533-0.15
					c-1.199,0-1.6,2.033-1.6,2.949v3.433h-1.85v-4.532c0-0.383,0.033-1.4-0.283-1.7c-0.133-0.133-0.35-0.15-0.533-0.15
					c-1.199,0-1.6,2.033-1.6,2.949v3.433h-1.85v-7.931h1.85v1.216h0.033c0.384-0.883,1.117-1.4,2.083-1.4
					c1.033,0,1.783,0.566,1.999,1.583h0.034c0.35-0.917,1.233-1.583,2.232-1.583c1.517,0,2.149,1.25,2.149,2.616v5.499H852.232z"/>
				<path fill="#231F20" d="M860.377-2924.84v-0.917h-0.033c-0.399,0.816-1.199,1.1-2.066,1.1c-1.266,0-2.332-0.733-2.332-2.083
					c0-2.383,2.633-2.633,4.432-2.683v-0.783c0-0.783-0.199-1.45-1.115-1.45c-0.801,0-1.217,0.433-1.217,1.216h-1.8
					c0-1.816,1.366-2.516,3.017-2.516c1.682,0,2.882,0.633,2.882,2.466v5.648H860.377z M857.744-2926.906
					c0,0.633,0.367,0.95,0.984,0.95c1.232,0,1.648-1.367,1.648-2.383C859.494-2928.339,857.744-2928.106,857.744-2926.906z"/>
				<path fill="#231F20" d="M868.89-2924.84v-4.532c0-0.383,0.033-1.4-0.283-1.7c-0.135-0.133-0.351-0.15-0.533-0.15
					c-1.334,0-1.867,1.883-1.867,2.949v3.433h-1.85v-7.931h1.85v1.483h0.033c0.417-1.017,1.217-1.667,2.35-1.667
					c1.517,0,2.15,1.25,2.15,2.616v5.499H868.89z"/>
				<path fill="#231F20" d="M875.586-2931.489v3.749c0,0.933,0.1,1.783,1.25,1.783c0.283,0,0.566-0.067,0.85-0.133v1.299
					c-0.5,0.083-1.017,0.133-1.517,0.133c-1.616,0-2.433-0.533-2.433-2.183v-4.649h-1.549v-1.283h1.549v-1.883l1.85-1.116v3h2.35
					v1.283H875.586z"/>
				<path fill="#231F20" d="M879.25-2934.505v-1.833h1.85v1.833H879.25z M879.25-2924.84v-7.931h1.85v7.931H879.25z"/>
				<path fill="#231F20" d="M886.497-2924.657c-2.517,0-3.499-1.85-3.499-4.149s0.982-4.149,3.499-4.149s3.499,1.85,3.499,4.149
					S889.013-2924.657,886.497-2924.657z M886.497-2931.655c-1.483,0-1.532,1.766-1.532,2.849s0.049,2.85,1.532,2.85
					s1.533-1.767,1.533-2.85S887.98-2931.655,886.497-2931.655z"/>
				<path fill="#231F20" d="M896.343-2924.84v-4.532c0-0.383,0.033-1.4-0.284-1.7c-0.133-0.133-0.35-0.15-0.533-0.15
					c-1.332,0-1.865,1.883-1.865,2.949v3.433h-1.85v-7.931h1.85v1.483h0.033c0.416-1.017,1.217-1.667,2.35-1.667
					c1.516,0,2.148,1.25,2.148,2.616v5.499H896.343z"/>
				<path fill="#231F20" d="M914.401-2924.657c-1.532,0-2.616-0.383-2.616-2.116v-3.249h-2.266c-1.684,0-2.434,0.367-2.434,2.233
					c0,1.266,0.701,1.933,1.95,1.933c0.601,0,1.1-0.133,1.633-0.4v1.333c-0.634,0.167-1.282,0.267-1.949,0.267
					c-2.033,0-3.716-0.8-3.716-3.083c0-1.7,0.783-2.583,2.416-2.866v-0.033c-1.35-0.367-2.199-0.917-2.199-2.466
					c0-2.1,1.549-2.833,3.416-2.833c0.633,0,1.283,0.1,1.883,0.3v1.333c-0.5-0.283-1.084-0.433-1.666-0.433
					c-1.066,0-1.551,0.75-1.551,1.75c0,1.5,0.867,1.783,2.184,1.783h2.299v-3.499l1.85-1.1v4.599h2.1v1.183h-2.1v2.6
					c0,0.816,0.25,1.566,1.199,1.566c0.317,0,0.617-0.1,0.9-0.216v1.283C915.301-2924.69,914.851-2924.657,914.401-2924.657z"/>
				<path fill="#231F20" d="M927.56-2933.188c0.018-1.166-0.416-1.949-1.699-1.949c-2.1,0-2.383,2.616-2.383,4.199
					c0,2.133,0.467,4.749,3.133,4.749c0.967,0,1.865-0.367,2.682-0.85v1.716c-0.966,0.417-2.082,0.667-3.132,0.667
					c-3.616,0-4.832-2.766-4.832-5.981c0-3.033,1.017-5.882,4.532-5.882c2.1,0,3.865,1.066,3.865,3.333H927.56z"/>
				<path fill="#231F20" d="M934.007-2924.657c-2.517,0-3.499-1.85-3.499-4.149s0.982-4.149,3.499-4.149s3.499,1.85,3.499,4.149
					S936.523-2924.657,934.007-2924.657z M934.007-2931.655c-1.483,0-1.532,1.766-1.532,2.849s0.049,2.85,1.532,2.85
					s1.533-1.767,1.533-2.85S935.49-2931.655,934.007-2931.655z"/>
				<path fill="#231F20" d="M947.851-2924.84v-4.532c0-0.383,0.033-1.4-0.283-1.7c-0.133-0.133-0.35-0.15-0.533-0.15
					c-1.199,0-1.6,2.033-1.6,2.949v3.433h-1.85v-4.532c0-0.383,0.033-1.4-0.283-1.7c-0.133-0.133-0.35-0.15-0.533-0.15
					c-1.199,0-1.6,2.033-1.6,2.949v3.433h-1.85v-7.931h1.85v1.216h0.033c0.383-0.883,1.116-1.4,2.082-1.4
					c1.033,0,1.783,0.566,2,1.583h0.033c0.35-0.917,1.233-1.583,2.232-1.583c1.518,0,2.15,1.25,2.15,2.616v5.499H947.851z"/>
				<path fill="#231F20" d="M955.762-2924.657c-0.85,0-1.532-0.417-1.966-1.133h-0.033v4.516h-1.85v-11.497h1.85v1.1h0.033
					c0.3-0.7,1.217-1.283,1.966-1.283c2.315,0,2.733,2.299,2.733,4.149C958.496-2927.04,957.963-2924.657,955.762-2924.657z
					 M955.146-2931.522c-1.166,0-1.383,1.866-1.383,2.716c0,0.9,0.116,2.716,1.383,2.716c1.35,0,1.383-1.75,1.383-2.716
					C956.529-2929.739,956.445-2931.522,955.146-2931.522z"/>
				<path fill="#231F20" d="M964.808-2924.84v-1.483h-0.033c-0.417,1-1.233,1.666-2.35,1.666c-1.517,0-2.15-1.25-2.15-2.616v-5.499
					h1.85v4.532c0,0.383-0.033,1.399,0.283,1.699c0.135,0.133,0.351,0.15,0.533,0.15c1.334,0,1.867-1.883,1.867-2.949v-3.432h1.85
					v7.931H964.808z"/>
				<path fill="#231F20" d="M971.521-2931.489v3.749c0,0.933,0.1,1.783,1.25,1.783c0.283,0,0.566-0.067,0.85-0.133v1.299
					c-0.5,0.083-1.017,0.133-1.517,0.133c-1.616,0-2.433-0.533-2.433-2.183v-4.649h-1.549v-1.283h1.549v-1.883l1.85-1.116v3h2.35
					v1.283H971.521z"/>
				<path fill="#231F20" d="M976.336-2929.289c0,1.683,1.183,3.333,2.982,3.333c0.5,0,1.049-0.133,1.516-0.3v1.283
					c-0.717,0.233-1.466,0.316-2.216,0.316c-2.815,0-3.999-1.949-3.999-4.565c0-2.25,1.033-3.732,3.398-3.732
					c2.018,0,3.017,1.283,3.017,3.216v0.45H976.336z M977.885-2931.772c-0.799,0-1.416,0.566-1.5,1.366h2.9
					C979.285-2931.255,978.734-2931.772,977.885-2931.772z"/>
				<path fill="#231F20" d="M984.631-2928.323v3.482h-1.85v-7.931h1.85v1.466h0.033c0.617-1.1,1.234-1.649,2.566-1.649v1.933
					C985.332-2931.022,984.631-2930.189,984.631-2928.323z"/>
				<path fill="#231F20" d="M996.426-2924.657c-1.1,0-2.133-0.216-3.184-0.483v-2.016c1.018,0.633,2.018,1.116,3.25,1.116
					c1.033,0,2.016-0.433,2.016-1.6c0-2.5-5.482-2.649-5.482-5.915c0-2.216,2.051-2.966,3.949-2.966
					c0.951,0,1.883,0.133,2.816,0.317v1.799c-0.967-0.383-1.816-0.733-2.883-0.733c-0.916,0-1.732,0.4-1.732,1.416
					c0,2.033,5.482,2.333,5.482,5.799C1000.658-2925.507,998.525-2924.657,996.426-2924.657z"/>
				<path fill="#231F20" d="M1006.42-2930.055c0-0.816-0.232-1.6-1.199-1.6c-1.166,0-1.516,1.216-1.516,2.166
					c0,2,1.166,3.533,3.266,3.533c0.449,0,0.898-0.05,1.332-0.2v1.133c-0.75,0.233-1.533,0.366-2.316,0.366
					c-2.832,0-4.248-1.733-4.248-4.499c0-2.3,1.25-3.799,3.633-3.799c1.932,0,3.016,0.95,3.016,2.899H1006.42z"/>
				<path fill="#231F20" d="M1009.734-2934.505v-1.833h1.85v1.833H1009.734z M1009.734-2924.84v-7.931h1.85v7.931H1009.734z"/>
				<path fill="#231F20" d="M1015.199-2929.289c0,1.683,1.182,3.333,2.982,3.333c0.5,0,1.049-0.133,1.516-0.3v1.283
					c-0.717,0.233-1.467,0.316-2.215,0.316c-2.816,0-4-1.949-4-4.565c0-2.25,1.033-3.732,3.398-3.732
					c2.018,0,3.018,1.283,3.018,3.216v0.45H1015.199z M1016.748-2931.772c-0.799,0-1.416,0.566-1.5,1.366h2.9
					C1018.148-2931.255,1017.597-2931.772,1016.748-2931.772z"/>
				<path fill="#231F20" d="M1026.211-2924.84v-4.532c0-0.383,0.033-1.4-0.283-1.7c-0.133-0.133-0.35-0.15-0.533-0.15
					c-1.334,0-1.867,1.883-1.867,2.949v3.433h-1.85v-7.931h1.85v1.483h0.033c0.418-1.017,1.217-1.667,2.35-1.667
					c1.518,0,2.15,1.25,2.15,2.616v5.499H1026.211z"/>
				<path fill="#231F20" d="M1034.49-2930.055c0-0.816-0.234-1.6-1.201-1.6c-1.166,0-1.516,1.216-1.516,2.166
					c0,2,1.166,3.533,3.266,3.533c0.451,0,0.9-0.05,1.334-0.2v1.133c-0.75,0.233-1.533,0.366-2.316,0.366
					c-2.832,0-4.25-1.733-4.25-4.499c0-2.3,1.25-3.799,3.633-3.799c1.934,0,3.016,0.95,3.016,2.899H1034.49z"/>
				<path fill="#231F20" d="M1038.953-2929.289c0,1.683,1.184,3.333,2.982,3.333c0.5,0,1.051-0.133,1.518-0.3v1.283
					c-0.717,0.233-1.467,0.316-2.217,0.316c-2.816,0-3.998-1.949-3.998-4.565c0-2.25,1.031-3.732,3.398-3.732
					c2.016,0,3.016,1.283,3.016,3.216v0.45H1038.953z M1040.504-2931.772c-0.801,0-1.418,0.566-1.5,1.366h2.898
					C1041.902-2931.255,1041.353-2931.772,1040.504-2931.772z"/>
				<path fill="#231F20" d="M815.566-2905.107c-0.716,0.233-1.482,0.267-2.232,0.267h-2.85v-11.497h2.85
					c4,0,5.049,1.966,5.049,5.715C818.383-2908.406,817.967-2905.873,815.566-2905.107z M813.334-2914.954h-0.899v8.731h0.899
					c0.551,0,1.15-0.067,1.633-0.35c1.217-0.75,1.268-2.799,1.268-4.049C816.234-2912.822,816.066-2914.954,813.334-2914.954z"/>
				<path fill="#231F20" d="M821.496-2909.289c0,1.683,1.184,3.333,2.982,3.333c0.5,0,1.051-0.133,1.518-0.3v1.283
					c-0.717,0.233-1.467,0.316-2.217,0.316c-2.816,0-3.999-1.949-3.999-4.565c0-2.25,1.033-3.732,3.399-3.732
					c2.016,0,3.016,1.283,3.016,3.216v0.45H821.496z M823.047-2911.772c-0.801,0-1.417,0.566-1.5,1.366h2.898
					C824.445-2911.255,823.896-2911.772,823.047-2911.772z"/>
				<path fill="#231F20" d="M831.775-2904.657c-0.85,0-1.533-0.417-1.967-1.133h-0.033v4.516h-1.85v-11.497h1.85v1.1h0.033
					c0.301-0.7,1.217-1.283,1.967-1.283c2.316,0,2.732,2.299,2.732,4.149C834.508-2907.04,833.974-2904.657,831.775-2904.657z
					 M831.158-2911.522c-1.166,0-1.383,1.866-1.383,2.716c0,0.9,0.117,2.716,1.383,2.716c1.351,0,1.384-1.75,1.384-2.716
					C832.542-2909.739,832.459-2911.522,831.158-2911.522z"/>
				<path fill="#231F20" d="M840.338-2904.84v-0.917h-0.033c-0.4,0.816-1.199,1.1-2.066,1.1c-1.266,0-2.332-0.733-2.332-2.083
					c0-2.383,2.632-2.633,4.432-2.683v-0.783c0-0.783-0.2-1.45-1.117-1.45c-0.799,0-1.216,0.433-1.216,1.216h-1.8
					c0-1.816,1.367-2.516,3.016-2.516c1.684,0,2.883,0.633,2.883,2.466v5.648H840.338z M837.705-2906.906
					c0,0.633,0.367,0.95,0.982,0.95c1.234,0,1.65-1.367,1.65-2.383C839.455-2908.339,837.705-2908.106,837.705-2906.906z"/>
				<path fill="#231F20" d="M846.135-2908.323v3.482h-1.85v-7.931h1.85v1.466h0.033c0.616-1.1,1.232-1.649,2.566-1.649v1.933
					C846.834-2911.022,846.135-2910.189,846.135-2908.323z"/>
				<path fill="#231F20" d="M852.763-2911.489v3.749c0,0.933,0.101,1.783,1.25,1.783c0.283,0,0.566-0.067,0.85-0.133v1.299
					c-0.5,0.083-1.016,0.133-1.516,0.133c-1.617,0-2.434-0.533-2.434-2.183v-4.649h-1.549v-1.283h1.549v-1.883l1.85-1.116v3h2.35
					v1.283H852.763z"/>
				<path fill="#231F20" d="M864.877-2904.84v-4.532c0-0.383,0.033-1.4-0.283-1.7c-0.135-0.133-0.351-0.15-0.533-0.15
					c-1.201,0-1.6,2.033-1.6,2.949v3.433h-1.85v-4.532c0-0.383,0.033-1.4-0.283-1.7c-0.135-0.133-0.351-0.15-0.533-0.15
					c-1.201,0-1.6,2.033-1.6,2.949v3.433h-1.85v-7.931h1.85v1.216h0.033c0.383-0.883,1.115-1.4,2.082-1.4
					c1.033,0,1.783,0.566,2,1.583h0.033c0.35-0.917,1.232-1.583,2.232-1.583c1.517,0,2.15,1.25,2.15,2.616v5.499H864.877z"/>
				<path fill="#231F20" d="M870.221-2909.289c0,1.683,1.183,3.333,2.982,3.333c0.5,0,1.05-0.133,1.517-0.3v1.283
					c-0.717,0.233-1.467,0.316-2.217,0.316c-2.815,0-3.998-1.949-3.998-4.565c0-2.25,1.033-3.732,3.398-3.732
					c2.017,0,3.016,1.283,3.016,3.216v0.45H870.221z M871.771-2911.772c-0.801,0-1.416,0.566-1.5,1.366h2.899
					C873.171-2911.255,872.621-2911.772,871.771-2911.772z"/>
				<path fill="#231F20" d="M881.234-2904.84v-4.532c0-0.383,0.033-1.4-0.283-1.7c-0.135-0.133-0.351-0.15-0.533-0.15
					c-1.334,0-1.867,1.883-1.867,2.949v3.433h-1.85v-7.931h1.85v1.483h0.033c0.417-1.017,1.217-1.667,2.35-1.667
					c1.517,0,2.15,1.25,2.15,2.616v5.499H881.234z"/>
				<path fill="#231F20" d="M887.929-2911.489v3.749c0,0.933,0.101,1.783,1.25,1.783c0.283,0,0.566-0.067,0.85-0.133v1.299
					c-0.5,0.083-1.016,0.133-1.516,0.133c-1.617,0-2.434-0.533-2.434-2.183v-4.649h-1.549v-1.283h1.549v-1.883l1.85-1.116v3h2.35
					v1.283H887.929z"/>
			</g>
		</g>
	</g>
</g>
</svg>
